<?xml version="1.0" standalone="no"?>
<!DOCTYPE svg PUBLIC "-//W3C//DTD SVG 20010904//EN" "http://www.w3.org/TR/2001/REC-SVG-20010904/DTD/svg10.dtd">
<svg version="1.0" xmlns="http://www.w3.org/2000/svg" width="24.000000pt" height="24.000000pt"
    viewBox="0 0 768.000000 768.000000" preserveAspectRatio="xMidYMid meet">

    <g transform="translate(0.000000,768.000000) scale(0.100000,-0.100000)" fill="#000000" stroke="none">
        <path d="M2605 6405 c-379 -81 -745 -376 -942 -760 -104 -203 -143 -385 -109
-510 18 -70 41 -110 78 -139 31 -23 39 -24 115 -19 l83 6 35 -37 c19 -21 35
-42 35 -49 0 -6 12 -24 27 -39 42 -44 82 -39 145 20 61 55 90 88 138 155 32
45 44 52 140 91 133 52 201 98 290 193 89 96 119 138 171 243 53 109 56 115
74 175 19 60 30 274 17 294 -17 24 -42 4 -64 -50 -53 -126 -72 -153 -119 -169
-62 -22 -66 -25 -72 -71 -9 -68 -27 -79 -124 -79 -83 0 -83 0 -103 -32 -15
-24 -20 -51 -20 -101 0 -81 -34 -164 -80 -197 -31 -22 -45 -26 -34 -9 16 27
26 93 32 216 6 116 10 135 30 160 56 70 57 73 42 107 -7 17 -15 54 -17 82 -5
49 -3 53 31 80 20 16 45 31 57 34 14 4 28 22 40 53 29 73 46 93 90 107 32 11
48 25 71 61 31 51 91 87 183 110 57 15 75 26 75 46 0 40 -180 56 -315 28z" />
        <path d="M4662 6405 c-22 -9 -32 -20 -30 -31 4 -20 16 -27 89 -48 67 -19 159
-77 182 -115 8 -14 37 -37 63 -51 34 -18 53 -36 66 -65 11 -22 25 -51 31 -64
7 -14 25 -28 44 -33 37 -10 83 -60 83 -93 0 -12 -7 -39 -15 -58 -22 -53 -18
-85 15 -127 43 -55 50 -80 50 -193 0 -57 7 -126 15 -157 8 -30 13 -56 11 -57
-2 -2 -18 8 -35 23 -49 41 -71 94 -78 187 -4 57 -12 90 -25 110 -18 25 -24 27
-97 27 -92 0 -107 11 -117 83 -7 46 -7 46 -60 62 -49 14 -57 21 -84 68 -16 28
-40 78 -52 110 -48 121 -91 37 -68 -131 24 -169 97 -331 216 -480 107 -134
219 -212 374 -261 52 -17 76 -36 122 -99 23 -31 72 -85 108 -119 92 -89 135
-86 189 14 35 65 59 75 153 69 67 -5 80 -3 109 17 70 48 109 180 89 305 -11
63 -33 153 -49 197 -30 80 -166 335 -190 355 -3 3 -32 37 -63 75 -173 213
-460 403 -708 467 -101 27 -292 34 -338 13z" />
        <path d="M908 5046 c-36 -41 -46 -58 -94 -156 -54 -109 -74 -193 -81 -328 -5
-114 5 -137 47 -97 17 16 43 27 73 31 26 4 47 9 47 13 0 3 -9 33 -20 65 -34
101 -25 208 32 371 11 33 27 69 34 80 17 23 18 55 3 55 -6 0 -24 -15 -41 -34z" />
        <path d="M6590 5069 c0 -7 9 -26 19 -43 32 -52 69 -182 76 -264 6 -68 -2 -150
-21 -233 -5 -24 -3 -27 31 -33 38 -8 67 -21 97 -44 15 -12 18 -10 27 25 13 44
-1 193 -26 283 -21 77 -99 232 -140 280 -33 39 -63 52 -63 29z" />
        <path d="M2765 4998 c-84 -11 -323 -46 -382 -57 -69 -12 -73 -20 -73 -132 0
-109 1 -111 73 -124 23 -5 46 -18 62 -37 27 -32 28 -36 45 -143 34 -217 47
-264 94 -335 38 -57 61 -81 111 -112 75 -46 144 -68 211 -68 34 0 66 -5 69
-10 10 -16 -32 -77 -69 -99 -49 -30 -120 -28 -163 5 -18 14 -38 22 -43 19 -6
-3 -10 -30 -10 -59 0 -34 -5 -58 -14 -65 -19 -16 -74 -17 -88 -3 -26 26 -38
13 -38 -38 0 -122 -99 -210 -237 -210 -52 0 -73 -12 -73 -44 0 -28 -32 -126
-42 -126 -4 0 -8 -6 -8 -13 0 -23 -90 -116 -143 -146 -28 -16 -85 -37 -124
-47 -54 -13 -73 -22 -73 -34 0 -26 38 -55 125 -95 169 -77 191 -90 290 -175
55 -48 117 -98 137 -111 20 -13 80 -55 134 -94 54 -38 109 -75 121 -82 119
-62 121 -63 137 -63 24 0 166 -72 246 -124 194 -126 161 -121 725 -121 503 0
515 1 618 52 27 13 79 44 117 68 77 49 152 85 260 125 88 32 125 52 227 123
42 29 106 72 143 97 72 48 136 99 215 170 27 25 75 57 105 71 95 45 144 67
168 74 33 10 92 64 92 84 0 13 -15 21 -57 31 -32 8 -74 20 -93 28 -99 40 -217
171 -241 267 -20 82 -23 85 -86 85 -73 0 -130 28 -183 87 -38 43 -40 49 -40
109 0 35 -4 64 -9 64 -5 0 -22 -7 -37 -15 -40 -20 -51 -19 -81 11 -22 22 -24
31 -19 69 4 25 3 46 -3 49 -5 4 -26 -5 -47 -19 -28 -19 -50 -25 -91 -25 -49 0
-57 4 -99 42 -30 28 -44 48 -42 62 3 18 12 22 73 27 103 8 210 52 265 108 80
82 113 170 150 396 19 119 21 125 46 154 17 20 38 32 67 36 64 11 67 16 67
125 0 111 -5 119 -73 131 -397 68 -571 82 -752 59 -231 -30 -295 -44 -495
-106 -71 -23 -203 -29 -255 -13 -22 6 -74 23 -115 36 -41 13 -88 28 -105 33
-39 12 -176 36 -286 49 -98 13 -303 12 -404 -1z m481 -113 c195 -34 266 -66
302 -136 21 -40 23 -52 17 -132 -16 -220 -122 -419 -260 -489 -54 -28 -112
-48 -137 -48 -22 0 -28 30 -29 159 -1 106 -8 136 -26 109 -11 -18 -32 -99 -33
-127 0 -14 -7 -51 -16 -83 l-17 -58 -56 0 c-164 1 -290 74 -349 200 -59 127
-81 436 -35 507 36 55 69 73 183 98 79 18 358 18 456 0z m1524 0 c164 -34 210
-84 209 -230 0 -79 -11 -188 -27 -275 -11 -58 -51 -146 -86 -188 -58 -68 -189
-116 -302 -110 l-59 3 -25 127 c-24 122 -43 170 -54 137 -3 -8 -6 -69 -8 -136
-2 -67 -6 -125 -10 -129 -10 -9 -93 14 -152 44 -128 63 -226 236 -258 453 -16
111 -5 162 43 210 21 21 47 39 57 39 10 0 22 4 28 8 9 9 116 32 224 50 94 16
337 14 420 -3z m-2260 -55 c12 -7 12 -13 4 -27 -15 -25 -96 -30 -114 -7 -12
14 -12 18 5 30 22 16 83 18 105 4z m2649 -4 c36 -43 -56 -69 -102 -28 -17 16
-17 17 -1 29 23 17 89 17 103 -1z m-1320 -151 c31 -16 43 -42 61 -130 26 -138
72 -255 132 -343 l31 -45 -23 -19 c-35 -29 -74 -23 -104 15 l-26 32 -23 -29
c-28 -35 -72 -39 -96 -7 -16 21 -16 21 -29 1 -16 -26 -63 -26 -87 0 -23 26
-29 25 -59 -5 -30 -30 -65 -32 -94 -5 -27 26 -27 24 2 63 35 47 71 115 91 172
28 82 55 188 55 219 0 18 11 39 34 62 38 38 86 45 135 19z m-596 -884 c26 -10
67 -49 67 -63 0 -5 -10 -4 -21 3 -14 7 -58 10 -119 7 -91 -3 -97 -2 -86 14 25
40 105 59 159 39z m1185 -5 c32 -16 68 -54 59 -62 -3 -3 -15 0 -28 6 -14 8
-56 11 -119 8 -89 -3 -97 -2 -87 13 27 43 123 62 175 35z m-1503 -166 l20 -8
-20 -6 c-65 -22 -135 -66 -180 -115 -89 -97 -128 -131 -179 -155 -48 -22 -126
-42 -126 -33 0 3 31 30 68 60 38 30 80 68 94 83 103 116 128 139 173 159 51
24 114 30 150 15z m1857 -13 c40 -18 73 -46 133 -112 44 -49 91 -98 104 -109
14 -12 41 -36 60 -53 l36 -33 -35 6 c-89 16 -148 57 -271 191 -50 53 -99 86
-164 108 l-20 7 20 8 c36 15 84 10 137 -13z" />
        <path d="M3105 4681 c-63 -26 -105 -119 -82 -183 18 -51 40 -76 80 -93 109
-45 207 18 207 135 0 60 -29 109 -80 135 -31 16 -92 19 -125 6z m23 -58 c-2
-22 -9 -29 -30 -31 -22 -3 -28 1 -28 15 0 11 5 24 12 31 7 7 20 12 31 12 14 0
18 -6 15 -27z" />
        <path d="M4333 4676 c-99 -45 -111 -201 -19 -261 72 -47 182 -18 216 57 11 24
20 53 20 66 0 34 -37 105 -67 126 -33 25 -109 31 -150 12z m21 -22 c22 -9 20
-51 -3 -64 -15 -7 -23 -6 -35 6 -20 19 -20 23 1 46 18 21 16 20 37 12z" />
        <path d="M1480 4970 c-23 -14 -18 -158 8 -236 41 -125 82 -184 154 -220 68
-34 118 -29 222 22 74 37 81 43 112 102 46 85 45 98 -8 107 -57 9 -100 44
-140 111 -32 53 -34 55 -68 50 -131 -22 -132 -22 -185 28 -51 47 -68 53 -95
36z" />
        <path d="M5977 4934 c-48 -46 -49 -46 -100 -39 -115 15 -117 15 -146 -36 -48
-84 -72 -104 -140 -115 -50 -8 -52 -23 -14 -99 32 -67 40 -74 130 -119 86 -43
128 -45 203 -10 86 40 115 84 169 255 15 48 14 182 -1 197 -22 22 -53 12 -101
-34z" />
        <path d="M1893 4456 c-85 -42 -99 -46 -166 -46 -66 0 -79 3 -131 35 -32 19
-64 35 -70 35 -44 0 -48 -80 -7 -165 44 -91 199 -295 323 -422 94 -97 133
-106 298 -70 36 8 90 18 120 22 30 4 63 12 74 17 17 9 14 14 -27 56 -61 64
-77 98 -112 247 -18 74 -40 147 -54 180 -5 11 -16 36 -24 55 -21 46 -66 88
-102 95 -23 5 -52 -5 -122 -39z" />
        <path d="M5513 4484 c-59 -29 -97 -105 -143 -284 -46 -176 -75 -243 -126 -290
-19 -17 -33 -37 -31 -43 2 -6 44 -17 93 -24 92 -13 169 -27 217 -39 43 -10
113 15 162 58 93 82 309 356 352 446 46 97 40 172 -12 172 -13 0 -27 -5 -30
-10 -4 -6 -28 -22 -55 -35 -38 -20 -65 -25 -119 -25 -70 0 -109 12 -181 56
-50 31 -89 37 -127 18z" />
        <path d="M844 4424 c-47 -23 -77 -59 -76 -91 1 -48 60 -243 93 -312 37 -74 56
-101 75 -101 18 0 102 58 113 78 12 23 -13 185 -45 290 -28 91 -71 152 -108
152 -11 0 -35 -7 -52 -16z" />
        <path d="M6619 4421 c-49 -38 -91 -158 -108 -306 -4 -38 -11 -77 -15 -86 -5
-12 7 -29 45 -63 53 -48 74 -55 101 -33 36 28 97 182 133 334 19 81 15 97 -38
138 -48 36 -86 41 -118 16z" />
        <path d="M6325 3984 c-50 -19 -99 -38 -110 -43 -11 -6 -55 -22 -97 -38 -87
-31 -96 -47 -50 -85 16 -13 41 -40 57 -60 30 -42 51 -47 112 -24 21 7 83 28
138 45 110 34 140 50 148 81 6 22 1 27 -57 75 -21 18 -36 39 -36 52 0 12 -3
24 -8 27 -4 2 -48 -11 -97 -30z" />
        <path d="M571 3997 c-21 -27 9 -257 51 -382 30 -91 33 -93 111 -63 38 15 35
37 -17 143 -63 127 -96 212 -96 245 0 15 -8 38 -18 50 -16 19 -19 20 -31 7z" />
        <path d="M1125 3978 c-9 -18 -34 -45 -55 -60 -47 -32 -53 -69 -17 -92 27 -18
186 -76 208 -76 9 0 30 -7 45 -15 16 -8 46 -15 66 -15 31 0 40 5 58 34 11 19
37 47 56 63 25 20 33 33 29 46 -4 9 -12 17 -18 17 -15 0 -139 46 -205 76 -29
13 -56 24 -61 24 -5 0 -22 7 -37 15 -42 21 -51 19 -69 -17z" />
        <path d="M6951 3988 c-5 -13 -17 -50 -26 -83 -10 -33 -44 -116 -76 -184 -60
-126 -67 -165 -31 -175 71 -20 79 -18 96 15 9 18 16 41 16 51 0 11 5 28 10 39
6 10 15 40 21 66 12 60 28 263 22 280 -8 20 -22 15 -32 -9z" />
        <path d="M1589 3813 c-5 -16 -30 -43 -54 -61 -47 -36 -60 -60 -51 -96 7 -28
40 -42 116 -51 60 -7 185 -68 430 -209 25 -14 50 -26 55 -26 13 0 45 56 45 79
0 11 -27 36 -67 64 -86 57 -151 107 -301 230 -128 104 -156 115 -173 70z" />
        <path d="M5883 3818 c-17 -13 -63 -50 -104 -83 -111 -92 -259 -204 -312 -237
-42 -27 -48 -34 -42 -55 7 -31 34 -73 46 -73 5 0 33 16 63 35 30 19 57 35 60
35 3 0 40 20 82 45 41 25 77 45 80 45 2 0 35 15 73 34 39 19 94 37 123 41 74
9 103 22 117 52 14 31 0 58 -54 99 -20 15 -43 40 -51 56 -18 34 -39 35 -81 6z" />
        <path d="M2275 3769 c-230 -49 -243 -58 -157 -116 47 -32 47 -32 142 -25 l95
7 16 35 c28 61 31 77 14 94 -18 17 -47 19 -110 5z" />
        <path d="M5167 3755 c-6 -13 19 -102 32 -117 3 -4 51 -8 106 -9 96 -3 102 -2
142 27 47 32 55 59 21 70 -135 43 -291 58 -301 29z" />
        <path d="M816 3544 c-4 -14 -22 -34 -41 -46 -19 -11 -35 -23 -35 -26 1 -10 76
-62 89 -62 6 0 11 -4 11 -10 0 -5 5 -10 12 -10 6 0 19 -6 27 -14 16 -14 88
-56 96 -56 3 0 5 9 5 20 0 12 9 40 20 62 11 23 20 47 20 52 0 6 -19 22 -43 35
-23 13 -58 37 -78 52 -46 37 -75 38 -83 3z" />
        <path d="M6613 3514 c-46 -30 -83 -60 -83 -67 0 -6 7 -20 15 -30 7 -11 17 -36
20 -58 4 -21 9 -39 12 -39 3 0 17 8 31 18 15 10 34 22 42 26 46 21 160 97 160
106 0 4 -15 17 -34 28 -21 12 -36 30 -38 44 -5 38 -37 31 -125 -28z" />
        <path d="M1110 3463 c0 -10 -11 -38 -25 -62 -33 -57 -35 -126 -4 -134 25 -7
108 0 159 13 19 5 79 17 133 26 89 17 101 21 120 49 12 16 34 42 50 56 18 16
28 33 25 45 -3 18 -16 19 -231 22 -211 2 -227 1 -227 -15z" />
        <path d="M5990 3465 c-11 -14 -7 -22 27 -58 22 -23 46 -52 51 -63 9 -17 29
-24 109 -38 54 -10 114 -21 133 -26 19 -5 61 -12 92 -15 49 -4 61 -2 78 15 26
26 25 56 -2 100 -11 19 -24 49 -28 65 l-6 30 -221 3 c-190 2 -222 0 -233 -13z" />
        <path d="M1656 3427 c-7 -18 -32 -48 -55 -66 -47 -38 -54 -72 -18 -102 12 -10
25 -18 30 -19 4 0 24 -11 45 -24 57 -36 80 -40 103 -20 24 22 84 44 121 44 30
0 98 29 98 41 0 4 -48 37 -107 73 -60 36 -121 74 -138 86 -43 29 -62 25 -79
-13z" />
        <path d="M5748 3395 c-59 -36 -111 -65 -115 -65 -13 -1 -53 -37 -53 -48 0 -13
73 -42 104 -42 31 0 99 -29 109 -46 11 -20 20 -18 95 18 123 58 137 87 71 146
-23 20 -48 52 -55 70 -9 19 -21 32 -32 32 -10 0 -66 -29 -124 -65z" />
        <path d="M1420 3165 c0 -8 4 -15 8 -15 5 0 17 -17 26 -38 16 -34 16 -42 2 -82
-30 -92 -31 -117 -2 -144 25 -23 35 -24 189 -30 89 -3 198 -10 242 -15 44 -5
123 -12 175 -16 l95 -6 -29 25 c-16 13 -50 32 -75 42 -116 43 -212 98 -261
151 -32 34 -58 53 -72 53 -13 0 -73 17 -133 38 -150 53 -165 56 -165 37z" />
        <path d="M5980 3130 c-63 -22 -125 -39 -138 -40 -14 0 -42 -20 -74 -56 -39
-41 -72 -64 -132 -92 -220 -100 -277 -141 -180 -128 167 22 348 39 474 45 84
3 154 11 166 18 29 17 35 59 17 108 -28 74 -28 110 2 149 l27 36 -23 0 c-13
-1 -76 -18 -139 -40z" />
        <path d="M1155 3041 c-60 -54 -135 -125 -165 -157 -105 -113 -205 -226 -214
-243 -5 -9 -21 -30 -36 -47 -40 -47 -65 -116 -51 -143 11 -20 20 -21 130 -21
114 0 119 1 157 28 57 42 224 232 224 256 0 2 18 32 41 66 66 99 139 245 139
278 0 46 -34 82 -78 82 -33 0 -50 -12 -147 -99z" />
        <path d="M6201 3114 c-38 -48 -26 -95 66 -254 105 -183 232 -347 307 -399 44
-31 69 -35 198 -32 70 1 79 3 93 25 14 21 14 28 2 58 -46 111 -371 467 -548
601 -47 35 -91 36 -118 1z" />
        <path d="M1685 2740 c-4 -7 4 -23 18 -38 45 -49 61 -92 62 -169 1 -78 11 -98
59 -118 20 -8 40 -9 65 -3 20 5 74 13 121 18 222 25 251 35 276 95 18 45 18
109 -1 145 -9 17 -17 30 -18 31 -2 0 -80 6 -382 28 -71 5 -144 12 -161 16 -20
5 -34 3 -39 -5z" />
        <path d="M5818 2745 c-5 -5 -156 -19 -381 -34 -113 -8 -132 -12 -153 -32 -19
-18 -24 -32 -24 -75 0 -62 22 -119 51 -135 22 -12 91 -23 234 -39 44 -5 101
-12 126 -16 33 -4 54 -2 77 10 34 18 38 29 45 122 5 61 38 135 73 164 11 10
12 16 3 26 -11 14 -41 19 -51 9z" />
        <path d="M1534 2672 c-81 -60 -155 -125 -165 -143 -7 -14 6 -25 69 -61 90 -52
123 -61 175 -46 92 27 103 132 23 223 -14 17 -29 38 -32 48 -7 24 -13 22 -70
-21z" />
        <path d="M5920 2647 c-40 -56 -44 -68 -45 -120 0 -53 3 -61 29 -84 43 -37 119
-29 200 21 33 20 66 36 73 36 37 0 4 43 -96 123 -59 48 -110 87 -112 86 -2 0
-24 -28 -49 -62z" />
        <path d="M2380 2591 c0 -21 -3 -53 -7 -71 l-6 -33 62 7 c74 8 88 13 95 32 5
13 -9 25 -103 86 -38 24 -41 22 -41 -21z" />
        <path d="M5145 2616 c-64 -37 -105 -71 -105 -87 0 -21 16 -27 90 -31 47 -3 55
-1 54 15 0 9 -1 40 -2 67 -2 53 -5 55 -37 36z" />
        <path d="M1343 2408 c-11 -14 -83 -166 -83 -175 0 -3 -6 -19 -14 -36 -42 -98
-57 -143 -80 -237 -28 -116 -31 -157 -11 -186 14 -22 22 -25 47 -20 45 9 175
76 204 105 66 66 160 337 152 436 -3 37 -6 40 -43 49 -21 5 -63 24 -92 43 -58
37 -66 39 -80 21z" />
        <path d="M2485 2399 c-76 -18 -99 -23 -242 -48 -35 -6 -75 -16 -90 -22 -31
-12 -32 -11 45 -57 48 -30 61 -50 68 -110 10 -74 26 -92 82 -92 27 0 52 4 58
8 5 5 25 15 44 22 69 26 242 114 246 125 3 6 -2 36 -10 66 -8 30 -18 65 -22
79 -16 57 -42 61 -179 29z" />
        <path d="M4890 2348 c-12 -40 -26 -84 -31 -97 -7 -16 -6 -28 2 -37 13 -16 107
-61 209 -101 36 -14 69 -30 75 -34 5 -5 32 -9 60 -9 65 0 81 16 90 92 8 62 23
84 88 125 38 24 40 26 22 39 -10 8 -24 14 -29 15 -6 0 -33 5 -61 10 -27 5 -70
14 -95 18 -25 5 -90 18 -145 30 -55 11 -114 21 -132 21 -32 0 -33 -2 -53 -72z" />
        <path d="M6150 2400 c-29 -23 -96 -56 -125 -62 -37 -6 -32 -89 17 -263 21 -73
85 -200 113 -224 46 -39 191 -104 218 -97 37 9 50 49 36 115 -25 127 -75 275
-138 416 -67 148 -73 153 -121 115z" />
        <path d="M2752 2397 c-8 -9 -7 -25 3 -55 28 -80 31 -82 120 -82 58 0 87 5 103
16 23 16 23 16 3 30 -36 26 -165 91 -192 97 -17 4 -31 2 -37 -6z" />
        <path d="M4725 2387 c-75 -33 -165 -86 -165 -97 0 -20 42 -30 122 -30 82 0 84
0 101 30 24 39 28 113 7 117 -8 1 -38 -8 -65 -20z" />
        <path d="M736 2344 c-22 -21 -21 -143 0 -209 51 -155 188 -365 238 -365 22 0
20 10 -9 62 -13 24 -37 80 -52 124 -26 73 -28 92 -29 234 l0 155 -40 7 c-63
11 -92 9 -108 -8z" />
        <path d="M6710 2351 l-35 -6 3 -120 c5 -154 -22 -280 -82 -388 -14 -25 -26
-51 -26 -56 0 -22 31 -10 66 27 33 34 124 163 124 176 0 3 11 29 24 58 49 109
69 233 46 292 -8 22 -15 26 -47 25 -21 -1 -54 -4 -73 -8z" />
        <path d="M2024 2188 c-15 -23 -38 -73 -51 -111 -31 -84 -28 -149 8 -221 32
-65 53 -74 114 -47 26 12 63 21 83 21 22 0 47 9 69 26 49 37 46 82 -7 136 -36
37 -40 46 -40 90 0 84 -51 148 -116 148 -29 0 -38 -6 -60 -42z" />
        <path d="M5412 2213 c-31 -22 -52 -75 -52 -134 0 -45 -4 -52 -40 -86 -37 -32
-41 -40 -38 -76 4 -50 33 -74 103 -86 28 -5 65 -16 83 -26 18 -9 43 -14 55
-11 35 8 87 108 87 168 0 60 -52 208 -88 251 -19 22 -79 22 -110 0z" />
        <path d="M2206 1760 c-38 -10 -81 -27 -95 -38 -35 -25 -56 -69 -45 -92 12 -25
199 -225 239 -256 38 -28 61 -24 68 14 3 15 13 52 23 82 9 30 19 79 21 108 4
45 1 57 -20 85 -41 53 -103 117 -113 116 -5 0 -40 -9 -78 -19z" />
        <path d="M5203 1715 l-63 -64 0 -65 c0 -36 4 -75 9 -88 5 -13 16 -48 26 -78
10 -30 21 -59 25 -63 12 -13 80 35 134 94 27 30 74 80 104 112 43 45 55 65 54
89 -1 55 -39 83 -152 109 l-75 18 -62 -64z" />
        <path d="M1313 1720 c-58 -26 -63 -31 -63 -60 0 -50 27 -96 105 -174 81 -82
210 -166 255 -166 42 0 38 22 -12 61 -22 18 -61 60 -85 93 -43 58 -103 175
-103 200 0 20 -21 76 -28 76 -4 -1 -35 -14 -69 -30z" />
        <path d="M6165 1727 c-8 -12 -15 -28 -15 -36 0 -25 -69 -160 -109 -214 -21
-29 -59 -72 -85 -96 -25 -24 -43 -48 -40 -53 33 -53 311 148 374 271 35 70 24
90 -72 134 -36 16 -38 16 -53 -6z" />
        <path d="M2466 1466 c-31 -80 -27 -98 24 -123 66 -32 234 -49 320 -31 81 16
94 42 28 52 -82 13 -183 50 -265 98 -45 26 -84 48 -86 48 -2 0 -12 -20 -21
-44z" />
        <path d="M4955 1451 c-77 -40 -137 -63 -199 -76 -49 -11 -89 -24 -89 -30 1
-28 49 -36 188 -32 147 5 227 24 249 59 12 19 -12 130 -29 133 -6 1 -60 -23
-120 -54z" />
    </g>
</svg>